<svg width="128" height="128" viewBox="0 0 128 128" fill="none" xmlns="http://www.w3.org/2000/svg">
<g clip-path="url(#clip0_2012_826)">
<path d="M64 128C99.3462 128 128 99.3462 128 64C128 28.6538 99.3462 0 64 0C28.6538 0 0 28.6538 0 64C0 99.3462 28.6538 128 64 128Z" fill="white"/>
<path d="M83.72 52.2701C83.59 51.6601 83.35 51.0901 83.04 50.5701C83.01 50.5101 82.98 50.4501 82.94 50.3901C82.86 50.2601 82.77 50.1401 82.68 50.0201C82.52 49.8001 82.36 49.6001 82.18 49.4101C82.17 49.4001 82.15 49.3901 82.14 49.3701C81.09 48.2901 79.64 47.6101 78.03 47.6101C76.77 47.6101 75.61 48.0101 74.67 48.7001C73.99 46.2901 71.76 44.5101 69.13 44.5101C67.96 44.5101 66.87 44.8601 65.96 45.4601V40.8401C69.48 38.8801 71.87 35.1201 71.87 30.8201C71.87 24.5001 66.73 19.3501 60.4 19.3501C54.07 19.3501 48.93 24.4901 48.93 30.8201C48.93 35.0001 51.18 38.6501 54.53 40.6601V65.6101C54.53 66.1501 53.58 66.5201 53.01 66.7001C52.67 66.8101 52.28 66.7001 52.03 66.4401C50.99 65.3101 49.54 63.2701 48.68 62.0501C48.36 61.6001 48.1 61.2401 47.95 61.0301L46.93 59.6901C46.06 58.5501 44.92 57.6201 43.63 57.0201L43.48 56.9501C41.77 56.1401 39.88 55.9101 38.02 56.2501L37.85 56.2901C36.92 56.6001 36.21 57.2601 35.86 58.1601C35.51 59.0701 35.37 60.6501 36.69 63.0001L36.79 63.1501C37.54 64.1401 38.01 65.0901 38.87 66.8301L39.6 68.2901C40.08 69.2501 43.62 75.0501 44.71 76.3901C52.19 90.0501 53.35 92.1701 56.9 94.9601C57.87 95.7201 58.45 96.9101 58.45 98.1401V107.37C58.45 108.08 59.03 108.66 59.74 108.66C60.45 108.66 61.03 108.08 61.03 107.37V98.1401C61.03 96.1201 60.08 94.1701 58.49 92.9201C55.34 90.4501 54.22 88.4001 46.9 75.0301L46.72 74.7801C46.06 74.0601 42.41 68.1601 41.89 67.1201L41.17 65.6701C40.29 63.9001 39.76 62.8101 38.89 61.6501C38.01 60.0501 38.18 59.2901 38.26 59.0901C38.3 58.9901 38.38 58.8501 38.58 58.7601C39.87 58.5401 41.18 58.7201 42.35 59.2701L42.5 59.3401C43.42 59.7701 44.23 60.4301 44.85 61.2401L45.87 62.5801C46.01 62.7701 46.25 63.1001 46.54 63.5201C47.5 64.8701 48.94 66.9201 50.1 68.1801C51.02 69.1801 52.45 69.5601 53.74 69.1601C56.5 68.3101 57.08 66.7501 57.08 65.6001V30.7801C57.08 29.0601 58.48 27.6501 60.21 27.6501C61.94 27.6501 63.34 29.0501 63.34 30.7801V50.0301C63.34 50.1401 63.31 50.2401 63.31 50.3501V60.6601C63.31 61.3701 63.89 61.9501 64.6 61.9501C65.31 61.9501 65.89 61.3701 65.89 60.6601V50.3501C65.89 48.5901 67.32 47.1601 69.08 47.1601C70.84 47.1601 72.27 48.5901 72.27 50.3501V60.7001C72.27 61.4101 72.85 61.9901 73.56 61.9901C74.27 61.9901 74.85 61.4101 74.85 60.7001V57.7501L74.74 57.7001C74.81 57.5401 74.85 57.3601 74.85 57.1801V53.4801C74.85 51.7201 76.28 50.2901 78.04 50.2901C79.8 50.2901 81.23 51.7201 81.23 53.4801V61.1601C81.23 61.8701 81.81 62.4501 82.52 62.4501C83.23 62.4501 83.81 61.8701 83.81 61.1601V56.3701C84.12 54.9501 85.36 53.9001 86.85 53.9001C88.58 53.9001 89.98 55.3101 89.98 57.0301V86.5101C89.96 86.5801 89.95 86.6501 89.95 86.7201V86.8301C89.74 88.5501 89.28 89.6501 88.75 90.9201C87.99 92.7301 87.13 94.7701 86.87 98.8701L86.71 101.39V106.69C86.71 106.69 86.71 106.71 86.71 106.72C86.73 107.42 87.29 107.98 88 107.98C88.71 107.98 89.29 107.4 89.29 106.69V101.47L89.45 99.0301C89.69 95.3701 90.42 93.6101 91.14 91.9101C91.7 90.5801 92.28 89.2001 92.5 87.2201L92.72 85.9701L92.57 85.9201V57.0301C92.57 53.8801 90.01 51.3101 86.85 51.3101C85.68 51.3101 84.59 51.6701 83.68 52.2801L83.72 52.2701ZM60.25 25.0701C57.1 25.0701 54.54 27.6301 54.54 30.7801V37.4701C52.69 35.8401 51.52 33.4701 51.52 30.8201C51.52 25.9201 55.5 21.9401 60.4 21.9401C65.3 21.9401 69.28 25.9201 69.28 30.8201C69.28 33.6201 67.98 36.1101 65.95 37.7401V30.7801C65.95 27.6301 63.39 25.0701 60.24 25.0701H60.25Z" fill="#334041"/>
<path d="M48.9301 30.8101H23.8501" stroke="#334041" stroke-width="2.94" stroke-miterlimit="10" stroke-linecap="round"/>
<path d="M33.58 18.8L35.59 20.9501L24.98 30.81L35.59 40.67L33.58 42.82L20.67 30.81L33.58 18.8Z" fill="#334041"/>
</g>
<defs>
<clipPath id="clip0_2012_826">
<rect width="128" height="128" fill="white"/>
</clipPath>
</defs>
</svg>
