<svg width="128" height="128" viewBox="0 0 128 128" fill="none" xmlns="http://www.w3.org/2000/svg">
<g clip-path="url(#clip0_2010_299)">
<path d="M64 128C99.3462 128 128 99.3462 128 64C128 28.6538 99.3462 0 64 0C28.6538 0 0 28.6538 0 64C0 99.3462 28.6538 128 64 128Z" fill="white"/>
<path d="M36.61 63.1299C37.36 64.1199 37.83 65.0699 38.69 66.8099L39.42 68.2699C39.9 69.2299 43.44 75.0299 44.53 76.3699C52.01 90.0299 53.17 92.1499 56.72 94.9399C57.69 95.6999 58.27 96.8899 58.27 98.1199V107.35C58.27 108.06 58.85 108.64 59.56 108.64C60.27 108.64 60.85 108.06 60.85 107.35V98.1199C60.85 96.0999 59.9 94.1499 58.31 92.8999C55.16 90.4299 54.04 88.3799 46.72 75.0099L46.54 74.7599C45.88 74.0399 42.23 68.1399 41.72 67.0999L41 65.6499C40.12 63.8799 39.59 62.7899 38.72 61.6299C37.84 60.0299 38.01 59.2699 38.09 59.0699C38.13 58.9699 38.21 58.8299 38.41 58.7399C39.7 58.5199 41.01 58.6999 42.18 59.2499L42.33 59.3199C43.25 59.7499 44.06 60.4099 44.68 61.2199L45.7 62.5599C45.84 62.7499 46.08 63.0799 46.37 63.4999C47.33 64.8499 48.77 66.8999 49.93 68.1599C50.85 69.1599 52.28 69.5399 53.57 69.1399C56.33 68.2899 56.91 66.7299 56.91 65.5799V30.7799C56.91 29.0599 58.31 27.6599 60.04 27.6599C61.77 27.6599 63.17 29.0599 63.17 30.7799V50.0299C63.17 50.1399 63.14 50.2399 63.14 50.3499V60.6599C63.14 61.3699 63.72 61.9499 64.43 61.9499C65.14 61.9499 65.72 61.3699 65.72 60.6599V50.3499C65.72 48.5899 67.15 47.1599 68.91 47.1599C70.67 47.1599 72.1 48.5899 72.1 50.3499V60.6999C72.1 61.4099 72.68 61.9899 73.39 61.9899C74.1 61.9899 74.68 61.4099 74.68 60.6999V57.7499L74.57 57.6999C74.64 57.5399 74.68 57.3599 74.68 57.1799V53.4799C74.68 51.7199 76.11 50.2899 77.87 50.2899C79.63 50.2899 81.06 51.7199 81.06 53.4799V61.1599C81.06 61.8699 81.64 62.4499 82.35 62.4499C83.06 62.4499 83.64 61.8699 83.64 61.1599V56.3699C83.95 54.9499 85.19 53.8999 86.68 53.8999C88.41 53.8999 89.81 55.3099 89.81 57.0299V86.5099C89.79 86.5799 89.78 86.6499 89.78 86.7199V86.8299C89.57 88.5499 89.11 89.6499 88.58 90.9199C87.82 92.7299 86.96 94.7699 86.7 98.8699L86.54 101.39V106.69C86.54 106.69 86.54 106.71 86.54 106.72C86.56 107.42 87.12 107.98 87.83 107.98C88.54 107.98 89.12 107.4 89.12 106.69V101.47L89.28 99.0299C89.52 95.3699 90.25 93.6099 90.97 91.9099C91.53 90.5799 92.11 89.1999 92.33 87.2199L92.55 85.9699L92.41 85.9199V57.0299C92.41 53.8799 89.85 51.3099 86.69 51.3099C85.52 51.3099 84.43 51.6699 83.52 52.2799C83.39 51.6699 83.15 51.0999 82.84 50.5799C82.81 50.5199 82.78 50.4599 82.74 50.3999C82.66 50.2699 82.57 50.1499 82.47 50.0299C82.31 49.8099 82.15 49.6099 81.97 49.4199C81.96 49.4099 81.95 49.3999 81.93 49.3799C80.88 48.2999 79.43 47.6199 77.82 47.6199C76.56 47.6199 75.4 48.0199 74.46 48.7099C73.78 46.2999 71.55 44.5199 68.92 44.5199C67.75 44.5199 66.66 44.8699 65.75 45.4699V40.8499C69.27 38.8899 71.66 35.1299 71.66 30.8299C71.66 24.5099 66.52 19.3599 60.19 19.3599C53.86 19.3599 48.72 24.4999 48.72 30.8299C48.72 35.0099 50.97 38.6599 54.32 40.6699V65.6199C54.32 66.1599 53.37 66.5299 52.8 66.7099C52.46 66.8199 52.07 66.7099 51.82 66.4499C50.77 65.3199 49.33 63.2799 48.47 62.0599C48.15 61.6099 47.89 61.2499 47.74 61.0399L46.72 59.6999C45.85 58.5599 44.71 57.6299 43.42 57.0299L43.27 56.9599C41.56 56.1599 39.67 55.9199 37.81 56.2599L37.64 56.2999C36.71 56.6099 36 57.2699 35.65 58.1699C35.3 59.0799 35.15 60.6599 36.48 63.0099L36.57 63.1599L36.61 63.1299ZM51.32 30.8099C51.32 25.9099 55.3 21.9299 60.2 21.9299C65.1 21.9299 69.08 25.9099 69.08 30.8099C69.08 33.6099 67.78 36.0999 65.75 37.7299V30.7699C65.75 27.6199 63.19 25.0599 60.04 25.0599C56.89 25.0599 54.33 27.6199 54.33 30.7699V37.4599C52.48 35.8299 51.31 33.4599 51.31 30.8099H51.32Z" fill="#61809D"/>
</g>
<defs>
<clipPath id="clip0_2010_299">
<rect width="128" height="128" fill="white"/>
</clipPath>
</defs>
</svg>
